<?xml version="1.0" encoding="utf-8"?>
<!-- Generator: Adobe Illustrator 30.7.0, SVG Export Plug-In . SVG Version: 9.03 Build 0)  -->
<svg version="1.1" id="Layer_1" xmlns="http://www.w3.org/2000/svg" xmlns:xlink="http://www.w3.org/1999/xlink" x="0px" y="0px"
	 viewBox="0 0 80 171.75" style="enable-background:new 0 0 80 171.75;" xml:space="preserve">
<style type="text/css">
	.st0{fill:#FFFFFF;}
</style>
<path class="st0" d="M32.5,121.75c0,4.14,3.36,7.5,7.5,7.5s7.5-3.36,7.5-7.5L55,40.18c0-8.28-6.72-15-15-15s-15,6.72-15,15"/>
<path class="st0" d="M47.5,121.75c0,4.14-3.36,7.5-7.5,7.5s-7.5-3.36-7.5-7.5C32.5,80,65,61.63,65,40c0-13.81-11.19-25-25-25
	S15,26.19,15,40l0,0c0,4.14-3.36,7.5-7.5,7.5S0,44.14,0,40l0,0C0,17.91,17.91,0,40,0s40,17.91,40,40C80,65,47.5,80,47.5,121.75z"/>
<circle class="st0" cx="40" cy="156.75" r="15"/>
</svg>
